%TF.GenerationSoftware,KiCad,Pcbnew,6.0.10-86aedd382b~118~ubuntu22.04.1*%
%TF.CreationDate,2023-01-20T18:04:38-05:00*%
%TF.ProjectId,picoco2_back,7069636f-636f-4325-9f62-61636b2e6b69,rev?*%
%TF.SameCoordinates,Original*%
%TF.FileFunction,Legend,Bot*%
%TF.FilePolarity,Positive*%
%FSLAX46Y46*%
G04 Gerber Fmt 4.6, Leading zero omitted, Abs format (unit mm)*
G04 Created by KiCad (PCBNEW 6.0.10-86aedd382b~118~ubuntu22.04.1) date 2023-01-20 18:04:38*
%MOMM*%
%LPD*%
G01*
G04 APERTURE LIST*
%ADD10C,0.150000*%
G04 APERTURE END LIST*
D10*
X48000000Y-56200000D02*
X5700000Y-56200000D01*
X5700000Y-56200000D02*
X5700000Y-61100000D01*
X5700000Y-61100000D02*
X48000000Y-61100000D01*
X48000000Y-61100000D02*
X48000000Y-56200000D01*
X44380952Y-54704761D02*
X44380952Y-52704761D01*
X43619047Y-52704761D01*
X43428571Y-52800000D01*
X43333333Y-52895238D01*
X43238095Y-53085714D01*
X43238095Y-53371428D01*
X43333333Y-53561904D01*
X43428571Y-53657142D01*
X43619047Y-53752380D01*
X44380952Y-53752380D01*
X42095238Y-54704761D02*
X42285714Y-54609523D01*
X42380952Y-54419047D01*
X42380952Y-52704761D01*
X40571428Y-54609523D02*
X40761904Y-54704761D01*
X41142857Y-54704761D01*
X41333333Y-54609523D01*
X41428571Y-54419047D01*
X41428571Y-53657142D01*
X41333333Y-53466666D01*
X41142857Y-53371428D01*
X40761904Y-53371428D01*
X40571428Y-53466666D01*
X40476190Y-53657142D01*
X40476190Y-53847619D01*
X41428571Y-54038095D01*
X38761904Y-54704761D02*
X38761904Y-53657142D01*
X38857142Y-53466666D01*
X39047619Y-53371428D01*
X39428571Y-53371428D01*
X39619047Y-53466666D01*
X38761904Y-54609523D02*
X38952380Y-54704761D01*
X39428571Y-54704761D01*
X39619047Y-54609523D01*
X39714285Y-54419047D01*
X39714285Y-54228571D01*
X39619047Y-54038095D01*
X39428571Y-53942857D01*
X38952380Y-53942857D01*
X38761904Y-53847619D01*
X37904761Y-54609523D02*
X37714285Y-54704761D01*
X37333333Y-54704761D01*
X37142857Y-54609523D01*
X37047619Y-54419047D01*
X37047619Y-54323809D01*
X37142857Y-54133333D01*
X37333333Y-54038095D01*
X37619047Y-54038095D01*
X37809523Y-53942857D01*
X37904761Y-53752380D01*
X37904761Y-53657142D01*
X37809523Y-53466666D01*
X37619047Y-53371428D01*
X37333333Y-53371428D01*
X37142857Y-53466666D01*
X35428571Y-54609523D02*
X35619047Y-54704761D01*
X36000000Y-54704761D01*
X36190476Y-54609523D01*
X36285714Y-54419047D01*
X36285714Y-53657142D01*
X36190476Y-53466666D01*
X36000000Y-53371428D01*
X35619047Y-53371428D01*
X35428571Y-53466666D01*
X35333333Y-53657142D01*
X35333333Y-53847619D01*
X36285714Y-54038095D01*
X33238095Y-53371428D02*
X32476190Y-53371428D01*
X32952380Y-54704761D02*
X32952380Y-52990476D01*
X32857142Y-52800000D01*
X32666666Y-52704761D01*
X32476190Y-52704761D01*
X31809523Y-54704761D02*
X31809523Y-53371428D01*
X31809523Y-52704761D02*
X31904761Y-52800000D01*
X31809523Y-52895238D01*
X31714285Y-52800000D01*
X31809523Y-52704761D01*
X31809523Y-52895238D01*
X30857142Y-53371428D02*
X30857142Y-54704761D01*
X30857142Y-53561904D02*
X30761904Y-53466666D01*
X30571428Y-53371428D01*
X30285714Y-53371428D01*
X30095238Y-53466666D01*
X30000000Y-53657142D01*
X30000000Y-54704761D01*
X28190476Y-54704761D02*
X28190476Y-52704761D01*
X28190476Y-54609523D02*
X28380952Y-54704761D01*
X28761904Y-54704761D01*
X28952380Y-54609523D01*
X29047619Y-54514285D01*
X29142857Y-54323809D01*
X29142857Y-53752380D01*
X29047619Y-53561904D01*
X28952380Y-53466666D01*
X28761904Y-53371428D01*
X28380952Y-53371428D01*
X28190476Y-53466666D01*
X24857142Y-53371428D02*
X24857142Y-54990476D01*
X24952380Y-55180952D01*
X25047619Y-55276190D01*
X25238095Y-55371428D01*
X25523809Y-55371428D01*
X25714285Y-55276190D01*
X24857142Y-54609523D02*
X25047619Y-54704761D01*
X25428571Y-54704761D01*
X25619047Y-54609523D01*
X25714285Y-54514285D01*
X25809523Y-54323809D01*
X25809523Y-53752380D01*
X25714285Y-53561904D01*
X25619047Y-53466666D01*
X25428571Y-53371428D01*
X25047619Y-53371428D01*
X24857142Y-53466666D01*
X23047619Y-53371428D02*
X23047619Y-54704761D01*
X23904761Y-53371428D02*
X23904761Y-54419047D01*
X23809523Y-54609523D01*
X23619047Y-54704761D01*
X23333333Y-54704761D01*
X23142857Y-54609523D01*
X23047619Y-54514285D01*
X22095238Y-54704761D02*
X22095238Y-53371428D01*
X22095238Y-52704761D02*
X22190476Y-52800000D01*
X22095238Y-52895238D01*
X22000000Y-52800000D01*
X22095238Y-52704761D01*
X22095238Y-52895238D01*
X20285714Y-54704761D02*
X20285714Y-52704761D01*
X20285714Y-54609523D02*
X20476190Y-54704761D01*
X20857142Y-54704761D01*
X21047619Y-54609523D01*
X21142857Y-54514285D01*
X21238095Y-54323809D01*
X21238095Y-53752380D01*
X21142857Y-53561904D01*
X21047619Y-53466666D01*
X20857142Y-53371428D01*
X20476190Y-53371428D01*
X20285714Y-53466666D01*
X18571428Y-54609523D02*
X18761904Y-54704761D01*
X19142857Y-54704761D01*
X19333333Y-54609523D01*
X19428571Y-54419047D01*
X19428571Y-53657142D01*
X19333333Y-53466666D01*
X19142857Y-53371428D01*
X18761904Y-53371428D01*
X18571428Y-53466666D01*
X18476190Y-53657142D01*
X18476190Y-53847619D01*
X19428571Y-54038095D01*
X16095238Y-54704761D02*
X16095238Y-52704761D01*
X15238095Y-54704761D02*
X15238095Y-53657142D01*
X15333333Y-53466666D01*
X15523809Y-53371428D01*
X15809523Y-53371428D01*
X16000000Y-53466666D01*
X16095238Y-53561904D01*
X13523809Y-54609523D02*
X13714285Y-54704761D01*
X14095238Y-54704761D01*
X14285714Y-54609523D01*
X14380952Y-54419047D01*
X14380952Y-53657142D01*
X14285714Y-53466666D01*
X14095238Y-53371428D01*
X13714285Y-53371428D01*
X13523809Y-53466666D01*
X13428571Y-53657142D01*
X13428571Y-53847619D01*
X14380952Y-54038095D01*
X12571428Y-54704761D02*
X12571428Y-53371428D01*
X12571428Y-53752380D02*
X12476190Y-53561904D01*
X12380952Y-53466666D01*
X12190476Y-53371428D01*
X12000000Y-53371428D01*
X10571428Y-54609523D02*
X10761904Y-54704761D01*
X11142857Y-54704761D01*
X11333333Y-54609523D01*
X11428571Y-54419047D01*
X11428571Y-53657142D01*
X11333333Y-53466666D01*
X11142857Y-53371428D01*
X10761904Y-53371428D01*
X10571428Y-53466666D01*
X10476190Y-53657142D01*
X10476190Y-53847619D01*
X11428571Y-54038095D01*
X9619047Y-54514285D02*
X9523809Y-54609523D01*
X9619047Y-54704761D01*
X9714285Y-54609523D01*
X9619047Y-54514285D01*
X9619047Y-54704761D01*
X9619047Y-53466666D02*
X9523809Y-53561904D01*
X9619047Y-53657142D01*
X9714285Y-53561904D01*
X9619047Y-53466666D01*
X9619047Y-53657142D01*
X38053630Y-36099523D02*
X37779821Y-36194761D01*
X37303630Y-36194761D01*
X37101250Y-36099523D01*
X36994107Y-36004285D01*
X36875059Y-35813809D01*
X36851250Y-35623333D01*
X36922678Y-35432857D01*
X37006011Y-35337619D01*
X37184583Y-35242380D01*
X37553630Y-35147142D01*
X37732202Y-35051904D01*
X37815535Y-34956666D01*
X37886964Y-34766190D01*
X37863154Y-34575714D01*
X37744107Y-34385238D01*
X37636964Y-34290000D01*
X37434583Y-34194761D01*
X36958392Y-34194761D01*
X36684583Y-34290000D01*
X35291726Y-36099523D02*
X35494107Y-36194761D01*
X35875059Y-36194761D01*
X36053630Y-36099523D01*
X36125059Y-35909047D01*
X36029821Y-35147142D01*
X35910773Y-34956666D01*
X35708392Y-34861428D01*
X35327440Y-34861428D01*
X35148869Y-34956666D01*
X35077440Y-35147142D01*
X35101250Y-35337619D01*
X36077440Y-35528095D01*
X34184583Y-34861428D02*
X34351250Y-36194761D01*
X34208392Y-35051904D02*
X34101250Y-34956666D01*
X33898869Y-34861428D01*
X33613154Y-34861428D01*
X33434583Y-34956666D01*
X33363154Y-35147142D01*
X33494107Y-36194761D01*
X32625059Y-36099523D02*
X32446488Y-36194761D01*
X32065535Y-36194761D01*
X31863154Y-36099523D01*
X31744107Y-35909047D01*
X31732202Y-35813809D01*
X31803630Y-35623333D01*
X31982202Y-35528095D01*
X32267916Y-35528095D01*
X32446488Y-35432857D01*
X32517916Y-35242380D01*
X32506011Y-35147142D01*
X32386964Y-34956666D01*
X32184583Y-34861428D01*
X31898869Y-34861428D01*
X31720297Y-34956666D01*
X30636964Y-36194761D02*
X30815535Y-36099523D01*
X30898869Y-36004285D01*
X30970297Y-35813809D01*
X30898869Y-35242380D01*
X30779821Y-35051904D01*
X30672678Y-34956666D01*
X30470297Y-34861428D01*
X30184583Y-34861428D01*
X30006011Y-34956666D01*
X29922678Y-35051904D01*
X29851250Y-35242380D01*
X29922678Y-35813809D01*
X30041726Y-36004285D01*
X30148869Y-36099523D01*
X30351250Y-36194761D01*
X30636964Y-36194761D01*
X29113154Y-36194761D02*
X28946488Y-34861428D01*
X28994107Y-35242380D02*
X28875059Y-35051904D01*
X28767916Y-34956666D01*
X28565535Y-34861428D01*
X28375059Y-34861428D01*
X26351250Y-36194761D02*
X26184583Y-34861428D01*
X26232202Y-35242380D02*
X26113154Y-35051904D01*
X26006011Y-34956666D01*
X25803630Y-34861428D01*
X25613154Y-34861428D01*
X24339345Y-36099523D02*
X24541726Y-36194761D01*
X24922678Y-36194761D01*
X25101250Y-36099523D01*
X25172678Y-35909047D01*
X25077440Y-35147142D01*
X24958392Y-34956666D01*
X24756011Y-34861428D01*
X24375059Y-34861428D01*
X24196488Y-34956666D01*
X24125059Y-35147142D01*
X24148869Y-35337619D01*
X25125059Y-35528095D01*
X22375059Y-34861428D02*
X22625059Y-36861428D01*
X22529821Y-36099523D02*
X22732202Y-36194761D01*
X23113154Y-36194761D01*
X23291726Y-36099523D01*
X23375059Y-36004285D01*
X23446488Y-35813809D01*
X23375059Y-35242380D01*
X23256011Y-35051904D01*
X23148869Y-34956666D01*
X22946488Y-34861428D01*
X22565535Y-34861428D01*
X22386964Y-34956666D01*
X20565535Y-34861428D02*
X20732202Y-36194761D01*
X21422678Y-34861428D02*
X21553630Y-35909047D01*
X21482202Y-36099523D01*
X21303630Y-36194761D01*
X21017916Y-36194761D01*
X20815535Y-36099523D01*
X20708392Y-36004285D01*
X19779821Y-36194761D02*
X19613154Y-34861428D01*
X19529821Y-34194761D02*
X19636964Y-34290000D01*
X19553630Y-34385238D01*
X19446488Y-34290000D01*
X19529821Y-34194761D01*
X19553630Y-34385238D01*
X18827440Y-36194761D02*
X18660773Y-34861428D01*
X18708392Y-35242380D02*
X18589345Y-35051904D01*
X18482202Y-34956666D01*
X18279821Y-34861428D01*
X18089345Y-34861428D01*
X16815535Y-36099523D02*
X17017916Y-36194761D01*
X17398869Y-36194761D01*
X17577440Y-36099523D01*
X17648869Y-35909047D01*
X17553630Y-35147142D01*
X17434583Y-34956666D01*
X17232202Y-34861428D01*
X16851250Y-34861428D01*
X16672678Y-34956666D01*
X16601250Y-35147142D01*
X16625059Y-35337619D01*
X17601250Y-35528095D01*
X15958392Y-36099523D02*
X15779821Y-36194761D01*
X15398869Y-36194761D01*
X15196488Y-36099523D01*
X15077440Y-35909047D01*
X15065535Y-35813809D01*
X15136964Y-35623333D01*
X15315535Y-35528095D01*
X15601250Y-35528095D01*
X15779821Y-35432857D01*
X15851250Y-35242380D01*
X15839345Y-35147142D01*
X15720297Y-34956666D01*
X15517916Y-34861428D01*
X15232202Y-34861428D01*
X15053630Y-34956666D01*
X41232202Y-38081428D02*
X41482202Y-40081428D01*
X41244107Y-38176666D02*
X41041726Y-38081428D01*
X40660773Y-38081428D01*
X40482202Y-38176666D01*
X40398869Y-38271904D01*
X40327440Y-38462380D01*
X40398869Y-39033809D01*
X40517916Y-39224285D01*
X40625059Y-39319523D01*
X40827440Y-39414761D01*
X41208392Y-39414761D01*
X41386964Y-39319523D01*
X38815535Y-39319523D02*
X39017916Y-39414761D01*
X39398869Y-39414761D01*
X39577440Y-39319523D01*
X39648869Y-39129047D01*
X39553630Y-38367142D01*
X39434583Y-38176666D01*
X39232202Y-38081428D01*
X38851250Y-38081428D01*
X38672678Y-38176666D01*
X38601250Y-38367142D01*
X38625059Y-38557619D01*
X39601250Y-38748095D01*
X37875059Y-39414761D02*
X37708392Y-38081428D01*
X37756011Y-38462380D02*
X37636964Y-38271904D01*
X37529821Y-38176666D01*
X37327440Y-38081428D01*
X37136964Y-38081428D01*
X36636964Y-39414761D02*
X36470297Y-38081428D01*
X36386964Y-37414761D02*
X36494107Y-37510000D01*
X36410773Y-37605238D01*
X36303630Y-37510000D01*
X36386964Y-37414761D01*
X36410773Y-37605238D01*
X35398869Y-39414761D02*
X35577440Y-39319523D01*
X35660773Y-39224285D01*
X35732202Y-39033809D01*
X35660773Y-38462380D01*
X35541726Y-38271904D01*
X35434583Y-38176666D01*
X35232202Y-38081428D01*
X34946488Y-38081428D01*
X34767916Y-38176666D01*
X34684583Y-38271904D01*
X34613154Y-38462380D01*
X34684583Y-39033809D01*
X34803630Y-39224285D01*
X34910773Y-39319523D01*
X35113154Y-39414761D01*
X35398869Y-39414761D01*
X33017916Y-39414761D02*
X32767916Y-37414761D01*
X33006011Y-39319523D02*
X33208392Y-39414761D01*
X33589345Y-39414761D01*
X33767916Y-39319523D01*
X33851250Y-39224285D01*
X33922678Y-39033809D01*
X33851250Y-38462380D01*
X33732202Y-38271904D01*
X33625059Y-38176666D01*
X33422678Y-38081428D01*
X33041726Y-38081428D01*
X32863154Y-38176666D01*
X32065535Y-39414761D02*
X31898869Y-38081428D01*
X31815535Y-37414761D02*
X31922678Y-37510000D01*
X31839345Y-37605238D01*
X31732202Y-37510000D01*
X31815535Y-37414761D01*
X31839345Y-37605238D01*
X30244107Y-39319523D02*
X30446488Y-39414761D01*
X30827440Y-39414761D01*
X31006011Y-39319523D01*
X31089345Y-39224285D01*
X31160773Y-39033809D01*
X31089345Y-38462380D01*
X30970297Y-38271904D01*
X30863154Y-38176666D01*
X30660773Y-38081428D01*
X30279821Y-38081428D01*
X30101250Y-38176666D01*
X27006011Y-39319523D02*
X27208392Y-39414761D01*
X27589345Y-39414761D01*
X27767916Y-39319523D01*
X27851250Y-39224285D01*
X27922678Y-39033809D01*
X27851250Y-38462380D01*
X27732202Y-38271904D01*
X27625059Y-38176666D01*
X27422678Y-38081428D01*
X27041726Y-38081428D01*
X26863154Y-38176666D01*
X25303630Y-39414761D02*
X25172678Y-38367142D01*
X25244107Y-38176666D01*
X25422678Y-38081428D01*
X25803630Y-38081428D01*
X26006011Y-38176666D01*
X25291726Y-39319523D02*
X25494107Y-39414761D01*
X25970297Y-39414761D01*
X26148869Y-39319523D01*
X26220297Y-39129047D01*
X26196488Y-38938571D01*
X26077440Y-38748095D01*
X25875059Y-38652857D01*
X25398869Y-38652857D01*
X25196488Y-38557619D01*
X24065535Y-39414761D02*
X24244107Y-39319523D01*
X24315535Y-39129047D01*
X24101250Y-37414761D01*
X23303630Y-39414761D02*
X23136964Y-38081428D01*
X23053630Y-37414761D02*
X23160773Y-37510000D01*
X23077440Y-37605238D01*
X22970297Y-37510000D01*
X23053630Y-37414761D01*
X23077440Y-37605238D01*
X22351250Y-39414761D02*
X22101250Y-37414761D01*
X22196488Y-38176666D02*
X21994107Y-38081428D01*
X21613154Y-38081428D01*
X21434583Y-38176666D01*
X21351250Y-38271904D01*
X21279821Y-38462380D01*
X21351250Y-39033809D01*
X21470297Y-39224285D01*
X21577440Y-39319523D01*
X21779821Y-39414761D01*
X22160773Y-39414761D01*
X22339345Y-39319523D01*
X20541726Y-39414761D02*
X20375059Y-38081428D01*
X20422678Y-38462380D02*
X20303630Y-38271904D01*
X20196488Y-38176666D01*
X19994107Y-38081428D01*
X19803630Y-38081428D01*
X18446488Y-39414761D02*
X18315535Y-38367142D01*
X18386964Y-38176666D01*
X18565535Y-38081428D01*
X18946488Y-38081428D01*
X19148869Y-38176666D01*
X18434583Y-39319523D02*
X18636964Y-39414761D01*
X19113154Y-39414761D01*
X19291726Y-39319523D01*
X19363154Y-39129047D01*
X19339345Y-38938571D01*
X19220297Y-38748095D01*
X19017916Y-38652857D01*
X18541726Y-38652857D01*
X18339345Y-38557619D01*
X17613154Y-38081428D02*
X16851250Y-38081428D01*
X17244107Y-37414761D02*
X17458392Y-39129047D01*
X17386964Y-39319523D01*
X17208392Y-39414761D01*
X17017916Y-39414761D01*
X16351250Y-39414761D02*
X16184583Y-38081428D01*
X16101250Y-37414761D02*
X16208392Y-37510000D01*
X16125059Y-37605238D01*
X16017916Y-37510000D01*
X16101250Y-37414761D01*
X16125059Y-37605238D01*
X15113154Y-39414761D02*
X15291726Y-39319523D01*
X15375059Y-39224285D01*
X15446488Y-39033809D01*
X15375059Y-38462380D01*
X15256011Y-38271904D01*
X15148869Y-38176666D01*
X14946488Y-38081428D01*
X14660773Y-38081428D01*
X14482202Y-38176666D01*
X14398869Y-38271904D01*
X14327440Y-38462380D01*
X14398869Y-39033809D01*
X14517916Y-39224285D01*
X14625059Y-39319523D01*
X14827440Y-39414761D01*
X15113154Y-39414761D01*
X13422678Y-38081428D02*
X13589345Y-39414761D01*
X13446488Y-38271904D02*
X13339345Y-38176666D01*
X13136964Y-38081428D01*
X12851250Y-38081428D01*
X12672678Y-38176666D01*
X12601250Y-38367142D01*
X12732202Y-39414761D01*
X11756011Y-39224285D02*
X11672678Y-39319523D01*
X11779821Y-39414761D01*
X11863154Y-39319523D01*
X11756011Y-39224285D01*
X11779821Y-39414761D01*
X46952380Y-59304761D02*
X46952380Y-57304761D01*
X46095238Y-59304761D02*
X46095238Y-58257142D01*
X46190476Y-58066666D01*
X46380952Y-57971428D01*
X46666666Y-57971428D01*
X46857142Y-58066666D01*
X46952380Y-58161904D01*
X45428571Y-57971428D02*
X44666666Y-57971428D01*
X45142857Y-57304761D02*
X45142857Y-59019047D01*
X45047619Y-59209523D01*
X44857142Y-59304761D01*
X44666666Y-59304761D01*
X44285714Y-57971428D02*
X43523809Y-57971428D01*
X44000000Y-57304761D02*
X44000000Y-59019047D01*
X43904761Y-59209523D01*
X43714285Y-59304761D01*
X43523809Y-59304761D01*
X42857142Y-57971428D02*
X42857142Y-59971428D01*
X42857142Y-58066666D02*
X42666666Y-57971428D01*
X42285714Y-57971428D01*
X42095238Y-58066666D01*
X42000000Y-58161904D01*
X41904761Y-58352380D01*
X41904761Y-58923809D01*
X42000000Y-59114285D01*
X42095238Y-59209523D01*
X42285714Y-59304761D01*
X42666666Y-59304761D01*
X42857142Y-59209523D01*
X41047619Y-59114285D02*
X40952380Y-59209523D01*
X41047619Y-59304761D01*
X41142857Y-59209523D01*
X41047619Y-59114285D01*
X41047619Y-59304761D01*
X41047619Y-58066666D02*
X40952380Y-58161904D01*
X41047619Y-58257142D01*
X41142857Y-58161904D01*
X41047619Y-58066666D01*
X41047619Y-58257142D01*
X38666666Y-57209523D02*
X40380952Y-59780952D01*
X36571428Y-57209523D02*
X38285714Y-59780952D01*
X35904761Y-57971428D02*
X35904761Y-59971428D01*
X35904761Y-58066666D02*
X35714285Y-57971428D01*
X35333333Y-57971428D01*
X35142857Y-58066666D01*
X35047619Y-58161904D01*
X34952380Y-58352380D01*
X34952380Y-58923809D01*
X35047619Y-59114285D01*
X35142857Y-59209523D01*
X35333333Y-59304761D01*
X35714285Y-59304761D01*
X35904761Y-59209523D01*
X34285714Y-57971428D02*
X33809523Y-59304761D01*
X33333333Y-57971428D01*
X32285714Y-59304761D02*
X32476190Y-59209523D01*
X32571428Y-59114285D01*
X32666666Y-58923809D01*
X32666666Y-58352380D01*
X32571428Y-58161904D01*
X32476190Y-58066666D01*
X32285714Y-57971428D01*
X32000000Y-57971428D01*
X31809523Y-58066666D01*
X31714285Y-58161904D01*
X31619047Y-58352380D01*
X31619047Y-58923809D01*
X31714285Y-59114285D01*
X31809523Y-59209523D01*
X32000000Y-59304761D01*
X32285714Y-59304761D01*
X30857142Y-59209523D02*
X30666666Y-59304761D01*
X30285714Y-59304761D01*
X30095238Y-59209523D01*
X30000000Y-59019047D01*
X30000000Y-58923809D01*
X30095238Y-58733333D01*
X30285714Y-58638095D01*
X30571428Y-58638095D01*
X30761904Y-58542857D01*
X30857142Y-58352380D01*
X30857142Y-58257142D01*
X30761904Y-58066666D01*
X30571428Y-57971428D01*
X30285714Y-57971428D01*
X30095238Y-58066666D01*
X29142857Y-59114285D02*
X29047619Y-59209523D01*
X29142857Y-59304761D01*
X29238095Y-59209523D01*
X29142857Y-59114285D01*
X29142857Y-59304761D01*
X27904761Y-59304761D02*
X28095238Y-59209523D01*
X28190476Y-59114285D01*
X28285714Y-58923809D01*
X28285714Y-58352380D01*
X28190476Y-58161904D01*
X28095238Y-58066666D01*
X27904761Y-57971428D01*
X27619047Y-57971428D01*
X27428571Y-58066666D01*
X27333333Y-58161904D01*
X27238095Y-58352380D01*
X27238095Y-58923809D01*
X27333333Y-59114285D01*
X27428571Y-59209523D01*
X27619047Y-59304761D01*
X27904761Y-59304761D01*
X26380952Y-59304761D02*
X26380952Y-57971428D01*
X26380952Y-58352380D02*
X26285714Y-58161904D01*
X26190476Y-58066666D01*
X26000000Y-57971428D01*
X25809523Y-57971428D01*
X24285714Y-57971428D02*
X24285714Y-59590476D01*
X24380952Y-59780952D01*
X24476190Y-59876190D01*
X24666666Y-59971428D01*
X24952380Y-59971428D01*
X25142857Y-59876190D01*
X24285714Y-59209523D02*
X24476190Y-59304761D01*
X24857142Y-59304761D01*
X25047619Y-59209523D01*
X25142857Y-59114285D01*
X25238095Y-58923809D01*
X25238095Y-58352380D01*
X25142857Y-58161904D01*
X25047619Y-58066666D01*
X24857142Y-57971428D01*
X24476190Y-57971428D01*
X24285714Y-58066666D01*
X21904761Y-57209523D02*
X23619047Y-59780952D01*
X20380952Y-59209523D02*
X20571428Y-59304761D01*
X20952380Y-59304761D01*
X21142857Y-59209523D01*
X21238095Y-59114285D01*
X21333333Y-58923809D01*
X21333333Y-58352380D01*
X21238095Y-58161904D01*
X21142857Y-58066666D01*
X20952380Y-57971428D01*
X20571428Y-57971428D01*
X20380952Y-58066666D01*
X19238095Y-59304761D02*
X19428571Y-59209523D01*
X19523809Y-59114285D01*
X19619047Y-58923809D01*
X19619047Y-58352380D01*
X19523809Y-58161904D01*
X19428571Y-58066666D01*
X19238095Y-57971428D01*
X18952380Y-57971428D01*
X18761904Y-58066666D01*
X18666666Y-58161904D01*
X18571428Y-58352380D01*
X18571428Y-58923809D01*
X18666666Y-59114285D01*
X18761904Y-59209523D01*
X18952380Y-59304761D01*
X19238095Y-59304761D01*
X17809523Y-57495238D02*
X17714285Y-57400000D01*
X17523809Y-57304761D01*
X17047619Y-57304761D01*
X16857142Y-57400000D01*
X16761904Y-57495238D01*
X16666666Y-57685714D01*
X16666666Y-57876190D01*
X16761904Y-58161904D01*
X17904761Y-59304761D01*
X16666666Y-59304761D01*
X14380952Y-57209523D02*
X16095238Y-59780952D01*
X13714285Y-59304761D02*
X13714285Y-57971428D01*
X13714285Y-58352380D02*
X13619047Y-58161904D01*
X13523809Y-58066666D01*
X13333333Y-57971428D01*
X13142857Y-57971428D01*
X11714285Y-59209523D02*
X11904761Y-59304761D01*
X12285714Y-59304761D01*
X12476190Y-59209523D01*
X12571428Y-59019047D01*
X12571428Y-58257142D01*
X12476190Y-58066666D01*
X12285714Y-57971428D01*
X11904761Y-57971428D01*
X11714285Y-58066666D01*
X11619047Y-58257142D01*
X11619047Y-58447619D01*
X12571428Y-58638095D01*
X10952380Y-57971428D02*
X10476190Y-59304761D01*
X10000000Y-57971428D01*
X9714285Y-59495238D02*
X8190476Y-59495238D01*
X7904761Y-59304761D02*
X6857142Y-57971428D01*
X7904761Y-57971428D02*
X6857142Y-59304761D01*
X48523809Y-90535809D02*
X48523809Y-88935809D01*
X47990476Y-90078666D01*
X47457142Y-88935809D01*
X47457142Y-90535809D01*
X46009523Y-90535809D02*
X46009523Y-89697714D01*
X46085714Y-89545333D01*
X46238095Y-89469142D01*
X46542857Y-89469142D01*
X46695238Y-89545333D01*
X46009523Y-90459619D02*
X46161904Y-90535809D01*
X46542857Y-90535809D01*
X46695238Y-90459619D01*
X46771428Y-90307238D01*
X46771428Y-90154857D01*
X46695238Y-90002476D01*
X46542857Y-89926285D01*
X46161904Y-89926285D01*
X46009523Y-89850095D01*
X45247619Y-90535809D02*
X45247619Y-89469142D01*
X45247619Y-88935809D02*
X45323809Y-89012000D01*
X45247619Y-89088190D01*
X45171428Y-89012000D01*
X45247619Y-88935809D01*
X45247619Y-89088190D01*
X44485714Y-89469142D02*
X44485714Y-90535809D01*
X44485714Y-89621523D02*
X44409523Y-89545333D01*
X44257142Y-89469142D01*
X44028571Y-89469142D01*
X43876190Y-89545333D01*
X43800000Y-89697714D01*
X43800000Y-90535809D01*
X41819047Y-90535809D02*
X41819047Y-88935809D01*
X41819047Y-89545333D02*
X41666666Y-89469142D01*
X41361904Y-89469142D01*
X41209523Y-89545333D01*
X41133333Y-89621523D01*
X41057142Y-89773904D01*
X41057142Y-90231047D01*
X41133333Y-90383428D01*
X41209523Y-90459619D01*
X41361904Y-90535809D01*
X41666666Y-90535809D01*
X41819047Y-90459619D01*
X39685714Y-90535809D02*
X39685714Y-89697714D01*
X39761904Y-89545333D01*
X39914285Y-89469142D01*
X40219047Y-89469142D01*
X40371428Y-89545333D01*
X39685714Y-90459619D02*
X39838095Y-90535809D01*
X40219047Y-90535809D01*
X40371428Y-90459619D01*
X40447619Y-90307238D01*
X40447619Y-90154857D01*
X40371428Y-90002476D01*
X40219047Y-89926285D01*
X39838095Y-89926285D01*
X39685714Y-89850095D01*
X39152380Y-89469142D02*
X38542857Y-89469142D01*
X38923809Y-88935809D02*
X38923809Y-90307238D01*
X38847619Y-90459619D01*
X38695238Y-90535809D01*
X38542857Y-90535809D01*
X38238095Y-89469142D02*
X37628571Y-89469142D01*
X38009523Y-88935809D02*
X38009523Y-90307238D01*
X37933333Y-90459619D01*
X37780952Y-90535809D01*
X37628571Y-90535809D01*
X36485714Y-90459619D02*
X36638095Y-90535809D01*
X36942857Y-90535809D01*
X37095238Y-90459619D01*
X37171428Y-90307238D01*
X37171428Y-89697714D01*
X37095238Y-89545333D01*
X36942857Y-89469142D01*
X36638095Y-89469142D01*
X36485714Y-89545333D01*
X36409523Y-89697714D01*
X36409523Y-89850095D01*
X37171428Y-90002476D01*
X35723809Y-90535809D02*
X35723809Y-89469142D01*
X35723809Y-89773904D02*
X35647619Y-89621523D01*
X35571428Y-89545333D01*
X35419047Y-89469142D01*
X35266666Y-89469142D01*
X34885714Y-89469142D02*
X34504761Y-90535809D01*
X34123809Y-89469142D02*
X34504761Y-90535809D01*
X34657142Y-90916761D01*
X34733333Y-90992952D01*
X34885714Y-91069142D01*
X33514285Y-90383428D02*
X33438095Y-90459619D01*
X33514285Y-90535809D01*
X33590476Y-90459619D01*
X33514285Y-90383428D01*
X33514285Y-90535809D01*
X33514285Y-89545333D02*
X33438095Y-89621523D01*
X33514285Y-89697714D01*
X33590476Y-89621523D01*
X33514285Y-89545333D01*
X33514285Y-89697714D01*
X31609523Y-89088190D02*
X31533333Y-89012000D01*
X31380952Y-88935809D01*
X31000000Y-88935809D01*
X30847619Y-89012000D01*
X30771428Y-89088190D01*
X30695238Y-89240571D01*
X30695238Y-89392952D01*
X30771428Y-89621523D01*
X31685714Y-90535809D01*
X30695238Y-90535809D01*
X28942857Y-90535809D02*
X28104761Y-89469142D01*
X28942857Y-89469142D02*
X28104761Y-90535809D01*
X26352380Y-90078666D02*
X25590476Y-90078666D01*
X26504761Y-90535809D02*
X25971428Y-88935809D01*
X25438095Y-90535809D01*
X24980952Y-90078666D02*
X24219047Y-90078666D01*
X25133333Y-90535809D02*
X24600000Y-88935809D01*
X24066666Y-90535809D01*
X23609523Y-90078666D02*
X22847619Y-90078666D01*
X23761904Y-90535809D02*
X23228571Y-88935809D01*
X22695238Y-90535809D01*
X19800000Y-88859619D02*
X21171428Y-90916761D01*
X18200000Y-88935809D02*
X17209523Y-88935809D01*
X17742857Y-89545333D01*
X17514285Y-89545333D01*
X17361904Y-89621523D01*
X17285714Y-89697714D01*
X17209523Y-89850095D01*
X17209523Y-90231047D01*
X17285714Y-90383428D01*
X17361904Y-90459619D01*
X17514285Y-90535809D01*
X17971428Y-90535809D01*
X18123809Y-90459619D01*
X18200000Y-90383428D01*
X16523809Y-90383428D02*
X16447619Y-90459619D01*
X16523809Y-90535809D01*
X16600000Y-90459619D01*
X16523809Y-90383428D01*
X16523809Y-90535809D01*
X15914285Y-88935809D02*
X14847619Y-88935809D01*
X15533333Y-90535809D01*
X14466666Y-88935809D02*
X13933333Y-90535809D01*
X13400000Y-88935809D01*
X10885714Y-90535809D02*
X11647619Y-90535809D01*
X11647619Y-88935809D01*
X10352380Y-90535809D02*
X10352380Y-89469142D01*
X10352380Y-88935809D02*
X10428571Y-89012000D01*
X10352380Y-89088190D01*
X10276190Y-89012000D01*
X10352380Y-88935809D01*
X10352380Y-89088190D01*
X9590476Y-89926285D02*
X8371428Y-89926285D01*
X7380952Y-90535809D02*
X7533333Y-90459619D01*
X7609523Y-90383428D01*
X7685714Y-90231047D01*
X7685714Y-89773904D01*
X7609523Y-89621523D01*
X7533333Y-89545333D01*
X7380952Y-89469142D01*
X7152380Y-89469142D01*
X7000000Y-89545333D01*
X6923809Y-89621523D01*
X6847619Y-89773904D01*
X6847619Y-90231047D01*
X6923809Y-90383428D01*
X7000000Y-90459619D01*
X7152380Y-90535809D01*
X7380952Y-90535809D01*
X6161904Y-89469142D02*
X6161904Y-90535809D01*
X6161904Y-89621523D02*
X6085714Y-89545333D01*
X5933333Y-89469142D01*
X5704761Y-89469142D01*
X5552380Y-89545333D01*
X5476190Y-89697714D01*
X5476190Y-90535809D01*
X36790476Y-92959428D02*
X36866666Y-93035619D01*
X37095238Y-93111809D01*
X37247619Y-93111809D01*
X37476190Y-93035619D01*
X37628571Y-92883238D01*
X37704761Y-92730857D01*
X37780952Y-92426095D01*
X37780952Y-92197523D01*
X37704761Y-91892761D01*
X37628571Y-91740380D01*
X37476190Y-91588000D01*
X37247619Y-91511809D01*
X37095238Y-91511809D01*
X36866666Y-91588000D01*
X36790476Y-91664190D01*
X35876190Y-93111809D02*
X36028571Y-93035619D01*
X36104761Y-92959428D01*
X36180952Y-92807047D01*
X36180952Y-92349904D01*
X36104761Y-92197523D01*
X36028571Y-92121333D01*
X35876190Y-92045142D01*
X35647619Y-92045142D01*
X35495238Y-92121333D01*
X35419047Y-92197523D01*
X35342857Y-92349904D01*
X35342857Y-92807047D01*
X35419047Y-92959428D01*
X35495238Y-93035619D01*
X35647619Y-93111809D01*
X35876190Y-93111809D01*
X34657142Y-93111809D02*
X34657142Y-92045142D01*
X34657142Y-91511809D02*
X34733333Y-91588000D01*
X34657142Y-91664190D01*
X34580952Y-91588000D01*
X34657142Y-91511809D01*
X34657142Y-91664190D01*
X33895238Y-92045142D02*
X33895238Y-93111809D01*
X33895238Y-92197523D02*
X33819047Y-92121333D01*
X33666666Y-92045142D01*
X33438095Y-92045142D01*
X33285714Y-92121333D01*
X33209523Y-92273714D01*
X33209523Y-93111809D01*
X30542857Y-93035619D02*
X30695238Y-93111809D01*
X31000000Y-93111809D01*
X31152380Y-93035619D01*
X31228571Y-92959428D01*
X31304761Y-92807047D01*
X31304761Y-92349904D01*
X31228571Y-92197523D01*
X31152380Y-92121333D01*
X31000000Y-92045142D01*
X30695238Y-92045142D01*
X30542857Y-92121333D01*
X29247619Y-93035619D02*
X29400000Y-93111809D01*
X29704761Y-93111809D01*
X29857142Y-93035619D01*
X29933333Y-92883238D01*
X29933333Y-92273714D01*
X29857142Y-92121333D01*
X29704761Y-92045142D01*
X29400000Y-92045142D01*
X29247619Y-92121333D01*
X29171428Y-92273714D01*
X29171428Y-92426095D01*
X29933333Y-92578476D01*
X28257142Y-93111809D02*
X28409523Y-93035619D01*
X28485714Y-92883238D01*
X28485714Y-91511809D01*
X27419047Y-93111809D02*
X27571428Y-93035619D01*
X27647619Y-92883238D01*
X27647619Y-91511809D01*
X26809523Y-92959428D02*
X26733333Y-93035619D01*
X26809523Y-93111809D01*
X26885714Y-93035619D01*
X26809523Y-92959428D01*
X26809523Y-93111809D01*
X26809523Y-92121333D02*
X26733333Y-92197523D01*
X26809523Y-92273714D01*
X26885714Y-92197523D01*
X26809523Y-92121333D01*
X26809523Y-92273714D01*
X23914285Y-92959428D02*
X23990476Y-93035619D01*
X24219047Y-93111809D01*
X24371428Y-93111809D01*
X24600000Y-93035619D01*
X24752380Y-92883238D01*
X24828571Y-92730857D01*
X24904761Y-92426095D01*
X24904761Y-92197523D01*
X24828571Y-91892761D01*
X24752380Y-91740380D01*
X24600000Y-91588000D01*
X24371428Y-91511809D01*
X24219047Y-91511809D01*
X23990476Y-91588000D01*
X23914285Y-91664190D01*
X22314285Y-93111809D02*
X22847619Y-92349904D01*
X23228571Y-93111809D02*
X23228571Y-91511809D01*
X22619047Y-91511809D01*
X22466666Y-91588000D01*
X22390476Y-91664190D01*
X22314285Y-91816571D01*
X22314285Y-92045142D01*
X22390476Y-92197523D01*
X22466666Y-92273714D01*
X22619047Y-92349904D01*
X23228571Y-92349904D01*
X20790476Y-93111809D02*
X21704761Y-93111809D01*
X21247619Y-93111809D02*
X21247619Y-91511809D01*
X21400000Y-91740380D01*
X21552380Y-91892761D01*
X21704761Y-91968952D01*
X20180952Y-91664190D02*
X20104761Y-91588000D01*
X19952380Y-91511809D01*
X19571428Y-91511809D01*
X19419047Y-91588000D01*
X19342857Y-91664190D01*
X19266666Y-91816571D01*
X19266666Y-91968952D01*
X19342857Y-92197523D01*
X20257142Y-93111809D01*
X19266666Y-93111809D01*
X18657142Y-91664190D02*
X18580952Y-91588000D01*
X18428571Y-91511809D01*
X18047619Y-91511809D01*
X17895238Y-91588000D01*
X17819047Y-91664190D01*
X17742857Y-91816571D01*
X17742857Y-91968952D01*
X17819047Y-92197523D01*
X18733333Y-93111809D01*
X17742857Y-93111809D01*
X16752380Y-91511809D02*
X16599999Y-91511809D01*
X16447619Y-91588000D01*
X16371428Y-91664190D01*
X16295238Y-91816571D01*
X16219047Y-92121333D01*
X16219047Y-92502285D01*
X16295238Y-92807047D01*
X16371428Y-92959428D01*
X16447619Y-93035619D01*
X16599999Y-93111809D01*
X16752380Y-93111809D01*
X16904761Y-93035619D01*
X16980952Y-92959428D01*
X17057142Y-92807047D01*
X17133333Y-92502285D01*
X17133333Y-92121333D01*
X17057142Y-91816571D01*
X16980952Y-91664190D01*
X16904761Y-91588000D01*
X16752380Y-91511809D01*
M02*
