%TF.GenerationSoftware,KiCad,Pcbnew,6.0.10-86aedd382b~118~ubuntu22.04.1*%
%TF.CreationDate,2023-01-20T18:04:38-05:00*%
%TF.ProjectId,picoco2_back,7069636f-636f-4325-9f62-61636b2e6b69,rev?*%
%TF.SameCoordinates,Original*%
%TF.FileFunction,Profile,NP*%
%FSLAX46Y46*%
G04 Gerber Fmt 4.6, Leading zero omitted, Abs format (unit mm)*
G04 Created by KiCad (PCBNEW 6.0.10-86aedd382b~118~ubuntu22.04.1) date 2023-01-20 18:04:38*
%MOMM*%
%LPD*%
G01*
G04 APERTURE LIST*
%TA.AperFunction,Profile*%
%ADD10C,0.100000*%
%TD*%
G04 APERTURE END LIST*
D10*
X39700000Y-10290000D02*
G75*
G03*
X39700000Y-10290000I-1270000J0D01*
G01*
X16840000Y-21720000D02*
G75*
G03*
X16840000Y-21720000I-1270000J0D01*
G01*
X28270000Y-17910000D02*
G75*
G03*
X28270000Y-17910000I-1270000J0D01*
G01*
X24460000Y-14100000D02*
G75*
G03*
X24460000Y-14100000I-1270000J0D01*
G01*
X54000000Y-3302000D02*
G75*
G03*
X50698000Y0I-3302000J0D01*
G01*
X16840000Y-14100000D02*
G75*
G03*
X16840000Y-14100000I-1270000J0D01*
G01*
X28270000Y-21720000D02*
G75*
G03*
X28270000Y-21720000I-1270000J0D01*
G01*
X16840000Y-17910000D02*
G75*
G03*
X16840000Y-17910000I-1270000J0D01*
G01*
X32080000Y-10290000D02*
G75*
G03*
X32080000Y-10290000I-1270000J0D01*
G01*
X16840000Y-10290000D02*
G75*
G03*
X16840000Y-10290000I-1270000J0D01*
G01*
X50698000Y0D02*
X3300067Y1933D01*
X20650000Y-6480000D02*
G75*
G03*
X20650000Y-6480000I-1270000J0D01*
G01*
X32080000Y-21720000D02*
G75*
G03*
X32080000Y-21720000I-1270000J0D01*
G01*
X32080000Y-6480000D02*
G75*
G03*
X32080000Y-6480000I-1270000J0D01*
G01*
X24460000Y-21720000D02*
G75*
G03*
X24460000Y-21720000I-1270000J0D01*
G01*
X35890000Y-17910000D02*
G75*
G03*
X35890000Y-17910000I-1270000J0D01*
G01*
X35890000Y-14100000D02*
G75*
G03*
X35890000Y-14100000I-1270000J0D01*
G01*
X35890000Y-21720000D02*
G75*
G03*
X35890000Y-21720000I-1270000J0D01*
G01*
X-1933Y-3300067D02*
X0Y-99618800D01*
X20650000Y-17910000D02*
G75*
G03*
X20650000Y-17910000I-1270000J0D01*
G01*
X28270000Y-14100000D02*
G75*
G03*
X28270000Y-14100000I-1270000J0D01*
G01*
X35890000Y-6480000D02*
G75*
G03*
X35890000Y-6480000I-1270000J0D01*
G01*
X24460000Y-17910000D02*
G75*
G03*
X24460000Y-17910000I-1270000J0D01*
G01*
X28270000Y-6480000D02*
G75*
G03*
X28270000Y-6480000I-1270000J0D01*
G01*
X3302000Y-102920800D02*
X50708333Y-102920800D01*
X32080000Y-14100000D02*
G75*
G03*
X32080000Y-14100000I-1270000J0D01*
G01*
X20650000Y-10290000D02*
G75*
G03*
X20650000Y-10290000I-1270000J0D01*
G01*
X32080000Y-17910000D02*
G75*
G03*
X32080000Y-17910000I-1270000J0D01*
G01*
X39700000Y-21720000D02*
G75*
G03*
X39700000Y-21720000I-1270000J0D01*
G01*
X20650000Y-21720000D02*
G75*
G03*
X20650000Y-21720000I-1270000J0D01*
G01*
X28270000Y-10290000D02*
G75*
G03*
X28270000Y-10290000I-1270000J0D01*
G01*
X39700000Y-17910000D02*
G75*
G03*
X39700000Y-17910000I-1270000J0D01*
G01*
X50708333Y-102920816D02*
G75*
G03*
X54000000Y-99618800I-33J3291716D01*
G01*
X0Y-99618800D02*
G75*
G03*
X3302000Y-102920800I3302000J0D01*
G01*
X39700000Y-6480000D02*
G75*
G03*
X39700000Y-6480000I-1270000J0D01*
G01*
X3300067Y1933D02*
G75*
G03*
X-1933Y-3300067I-1J-3301999D01*
G01*
X54000000Y-99618800D02*
X54000000Y-3302000D01*
X24460000Y-6480000D02*
G75*
G03*
X24460000Y-6480000I-1270000J0D01*
G01*
X39700000Y-14100000D02*
G75*
G03*
X39700000Y-14100000I-1270000J0D01*
G01*
X20650000Y-14100000D02*
G75*
G03*
X20650000Y-14100000I-1270000J0D01*
G01*
X24460000Y-10290000D02*
G75*
G03*
X24460000Y-10290000I-1270000J0D01*
G01*
X35890000Y-10290000D02*
G75*
G03*
X35890000Y-10290000I-1270000J0D01*
G01*
X16840000Y-6480000D02*
G75*
G03*
X16840000Y-6480000I-1270000J0D01*
G01*
M02*
