M48
; DRILL file {KiCad 6.0.10-86aedd382b~118~ubuntu22.04.1} date Fri 20 Jan 2023 05:58:24 PM EST
; FORMAT={-:-/ absolute / inch / decimal}
; #@! TF.CreationDate,2023-01-20T17:58:24-05:00
; #@! TF.GenerationSoftware,Kicad,Pcbnew,6.0.10-86aedd382b~118~ubuntu22.04.1
; #@! TF.FileFunction,Plated,1,2,PTH
FMAT,2
INCH
; #@! TA.AperFunction,Plated,PTH,ViaDrill
T1C0.0157
; #@! TA.AperFunction,Plated,PTH,ComponentDrill
T2C0.0276
; #@! TA.AperFunction,Plated,PTH,ComponentDrill
T3C0.0390
; #@! TA.AperFunction,Plated,PTH,ComponentDrill
T4C0.0394
; #@! TA.AperFunction,Plated,PTH,ComponentDrill
T5C0.0402
; #@! TA.AperFunction,Plated,PTH,ComponentDrill
T6C0.0512
; #@! TA.AperFunction,Plated,PTH,ComponentDrill
T7C0.0551
%
G90
G05
T1
X0.065Y-0.41
X0.09Y-3.11
X0.1Y-1.52
X0.1Y-3.54
X0.14Y-0.28
X0.15Y-0.7
X0.15Y-1.11
X0.16Y-3.33
X0.18Y-1.82
X0.29Y-0.98
X0.3Y-0.71
X0.3Y-0.81
X0.3Y-3.44
X0.34Y-0.05
X0.36Y-0.96
X0.364Y-0.556
X0.44Y-0.15
X0.44Y-3.44
X0.44Y-3.61
X0.47Y-2.16
X0.49Y-3.2
X0.505Y-3.41
X0.53Y-1.13
X0.53Y-1.33
X0.53Y-2.39
X0.53Y-3.13
X0.53Y-3.61
X0.54Y-3.29
X0.56Y-3.99
X0.58Y-3.23
X0.6Y-2.27
X0.6Y-3.8
X0.64Y-3.05
X0.64Y-3.12
X0.65Y-1.32
X0.65Y-1.57
X0.72Y-1.33
X0.72Y-2.99
X0.77Y-3.15
X0.78Y-0.97
X0.78Y-3.45
X0.83Y-3.24
X0.84Y-1.69
X0.85Y-0.13
X0.86Y-3.34
X0.8785Y-3.51
X0.88Y-1.53
X0.9385Y-1.3285
X0.9385Y-3.19
X0.9385Y-3.63
X0.94Y-1.13
X0.97Y-2.74
X0.97Y-3.85
X1.02Y-0.97
X1.02Y-3.21
X1.03Y-1.33
X1.03Y-1.69
X1.03Y-3.05
X1.03Y-3.13
X1.034Y-2.354
X1.04Y-3.71
X1.04Y-1.74
X1.07Y-1.01
X1.1085Y-2.9
X1.12Y-1.33
X1.14Y-2.4
X1.14Y-3.84
X1.18Y-3.16
X1.19Y-1.46
X1.19Y-1.53
X1.19Y-1.74
X1.19Y-3.72
X1.19Y-3.85
X1.23Y-1.33
X1.23Y-3.01
X1.24Y-3.83
X1.25Y-2.95
X1.27Y-1.67
X1.28Y-3.46
X1.28Y-3.81
X1.31Y-1.46
X1.31Y-1.59
X1.32Y-3.8474
X1.34Y-1.4015
X1.37Y-2.21
X1.37Y-3.96
X1.38Y-1.88
X1.39Y-1.33
X1.43Y-1.41
X1.45Y-2.858
X1.51Y-3.77
X1.52Y-1.33
X1.52Y-1.8
X1.52Y-2.7
X1.53Y-3.9454
X1.556Y-2.854
X1.56Y-1.13
X1.56Y-3.86
X1.62Y-1.13
X1.63Y-1.72
X1.64Y-2.91
X1.64Y-3.11
X1.67Y-2.4
X1.67Y-3.86
X1.68Y-1.01
X1.68Y-3.92
X1.69Y-3.6243
X1.71Y-3.06
X1.74Y-1.33
X1.74Y-2.21
X1.77Y-3.92
X1.7826Y-3.58
X1.7845Y-3.6718
X1.79Y-2.48
X1.79Y-3.81
X1.8Y-1.84
X1.82Y-3.16
X1.82Y-3.47
X1.83Y-3.67
X1.84Y-0.58
X1.84Y-2.18
X1.85Y-0.83
X1.86Y-3.91
X1.87Y-0.16
X1.87Y-1.9
X1.87Y-3.6
X1.9094Y-0.8806
X1.92Y-1.12
X1.92Y-3.55
X1.92Y-3.66
X1.97Y-2.95
X1.975Y-0.635
X1.975Y-0.95
X1.98Y-3.58
X2.02Y-1.39
X2.03Y-0.87
X2.03Y-1.33
X2.03Y-2.1
X2.03Y-2.27
X2.08Y-3.25
T2
X0.365Y-0.75
X0.365Y-1.05
X0.366Y-0.346
X0.366Y-0.646
X1.9094Y-0.3496
X1.9094Y-0.6496
X1.9094Y-0.7416
X1.9094Y-1.0416
T3
X0.1349Y-0.8124
X0.1349Y-0.9896
X0.136Y-0.4088
X0.136Y-0.586
T4
X0.497Y-0.076
X0.597Y-0.076
X0.697Y-0.076
X0.797Y-0.076
X0.897Y-0.076
X0.913Y-1.06
X0.997Y-0.076
X1.013Y-1.06
X1.097Y-0.076
X1.113Y-1.06
X1.213Y-1.06
X2.0355Y-0.538
X2.0355Y-0.638
X2.0355Y-0.738
X2.044Y-3.38
X2.044Y-3.48
X2.044Y-3.58
T5
X2.004Y-2.354
X2.004Y-2.854
T6
X0.2329Y-0.7628
X0.2329Y-1.0388
X0.234Y-0.3592
X0.234Y-0.6352
T7
X1.3846Y-1.052
X1.7846Y-1.052
T0
M30
