%TF.GenerationSoftware,KiCad,Pcbnew,6.0.10-86aedd382b~118~ubuntu22.04.1*%
%TF.CreationDate,2023-01-20T17:58:32-05:00*%
%TF.ProjectId,picoco2,7069636f-636f-4322-9e6b-696361645f70,rev?*%
%TF.SameCoordinates,Original*%
%TF.FileFunction,Profile,NP*%
%FSLAX46Y46*%
G04 Gerber Fmt 4.6, Leading zero omitted, Abs format (unit mm)*
G04 Created by KiCad (PCBNEW 6.0.10-86aedd382b~118~ubuntu22.04.1) date 2023-01-20 17:58:32*
%MOMM*%
%LPD*%
G01*
G04 APERTURE LIST*
%TA.AperFunction,Profile*%
%ADD10C,0.100000*%
%TD*%
G04 APERTURE END LIST*
D10*
X39624000Y-9906000D02*
G75*
G03*
X39624000Y-9906000I-1270000J0D01*
G01*
X16764000Y-21336000D02*
G75*
G03*
X16764000Y-21336000I-1270000J0D01*
G01*
X28194000Y-17526000D02*
G75*
G03*
X28194000Y-17526000I-1270000J0D01*
G01*
X24384000Y-13716000D02*
G75*
G03*
X24384000Y-13716000I-1270000J0D01*
G01*
X54000000Y-3302000D02*
G75*
G03*
X50698000Y0I-3302000J0D01*
G01*
X16764000Y-13716000D02*
G75*
G03*
X16764000Y-13716000I-1270000J0D01*
G01*
X28194000Y-21336000D02*
G75*
G03*
X28194000Y-21336000I-1270000J0D01*
G01*
X16764000Y-17526000D02*
G75*
G03*
X16764000Y-17526000I-1270000J0D01*
G01*
X32004000Y-9906000D02*
G75*
G03*
X32004000Y-9906000I-1270000J0D01*
G01*
X16764000Y-9906000D02*
G75*
G03*
X16764000Y-9906000I-1270000J0D01*
G01*
X43434000Y-9906000D02*
G75*
G03*
X43434000Y-9906000I-1270000J0D01*
G01*
X50698000Y0D02*
X3300067Y1933D01*
X20574000Y-6096000D02*
G75*
G03*
X20574000Y-6096000I-1270000J0D01*
G01*
X32004000Y-21336000D02*
G75*
G03*
X32004000Y-21336000I-1270000J0D01*
G01*
X32004000Y-6096000D02*
G75*
G03*
X32004000Y-6096000I-1270000J0D01*
G01*
X43434000Y-17526000D02*
G75*
G03*
X43434000Y-17526000I-1270000J0D01*
G01*
X24384000Y-21336000D02*
G75*
G03*
X24384000Y-21336000I-1270000J0D01*
G01*
X35814000Y-17526000D02*
G75*
G03*
X35814000Y-17526000I-1270000J0D01*
G01*
X35814000Y-13716000D02*
G75*
G03*
X35814000Y-13716000I-1270000J0D01*
G01*
X35814000Y-21336000D02*
G75*
G03*
X35814000Y-21336000I-1270000J0D01*
G01*
X-1933Y-3300067D02*
X0Y-99618800D01*
X20574000Y-17526000D02*
G75*
G03*
X20574000Y-17526000I-1270000J0D01*
G01*
X28194000Y-13716000D02*
G75*
G03*
X28194000Y-13716000I-1270000J0D01*
G01*
X35814000Y-6096000D02*
G75*
G03*
X35814000Y-6096000I-1270000J0D01*
G01*
X43434000Y-21336000D02*
G75*
G03*
X43434000Y-21336000I-1270000J0D01*
G01*
X24384000Y-17526000D02*
G75*
G03*
X24384000Y-17526000I-1270000J0D01*
G01*
X28194000Y-6096000D02*
G75*
G03*
X28194000Y-6096000I-1270000J0D01*
G01*
X43434000Y-13716000D02*
G75*
G03*
X43434000Y-13716000I-1270000J0D01*
G01*
X3302000Y-102920800D02*
X50708333Y-102920800D01*
X32004000Y-13716000D02*
G75*
G03*
X32004000Y-13716000I-1270000J0D01*
G01*
X20574000Y-9906000D02*
G75*
G03*
X20574000Y-9906000I-1270000J0D01*
G01*
X32004000Y-17526000D02*
G75*
G03*
X32004000Y-17526000I-1270000J0D01*
G01*
X39624000Y-21336000D02*
G75*
G03*
X39624000Y-21336000I-1270000J0D01*
G01*
X20574000Y-21336000D02*
G75*
G03*
X20574000Y-21336000I-1270000J0D01*
G01*
X28194000Y-9906000D02*
G75*
G03*
X28194000Y-9906000I-1270000J0D01*
G01*
X39624000Y-17526000D02*
G75*
G03*
X39624000Y-17526000I-1270000J0D01*
G01*
X50708333Y-102920816D02*
G75*
G03*
X54000000Y-99618800I-33J3291716D01*
G01*
X0Y-99618800D02*
G75*
G03*
X3302000Y-102920800I3302000J0D01*
G01*
X39624000Y-6096000D02*
G75*
G03*
X39624000Y-6096000I-1270000J0D01*
G01*
X3300067Y1933D02*
G75*
G03*
X-1933Y-3300067I-1J-3301999D01*
G01*
X54000000Y-99618800D02*
X54000000Y-3302000D01*
X24384000Y-6096000D02*
G75*
G03*
X24384000Y-6096000I-1270000J0D01*
G01*
X39624000Y-13716000D02*
G75*
G03*
X39624000Y-13716000I-1270000J0D01*
G01*
X20574000Y-13716000D02*
G75*
G03*
X20574000Y-13716000I-1270000J0D01*
G01*
X43434000Y-6096000D02*
G75*
G03*
X43434000Y-6096000I-1270000J0D01*
G01*
X24384000Y-9906000D02*
G75*
G03*
X24384000Y-9906000I-1270000J0D01*
G01*
X35814000Y-9906000D02*
G75*
G03*
X35814000Y-9906000I-1270000J0D01*
G01*
X16764000Y-6096000D02*
G75*
G03*
X16764000Y-6096000I-1270000J0D01*
G01*
M02*
