%TF.GenerationSoftware,KiCad,Pcbnew,6.0.10-86aedd382b~118~ubuntu22.04.1*%
%TF.CreationDate,2023-01-20T17:58:32-05:00*%
%TF.ProjectId,picoco2,7069636f-636f-4322-9e6b-696361645f70,rev?*%
%TF.SameCoordinates,Original*%
%TF.FileFunction,Copper,L2,Bot*%
%TF.FilePolarity,Positive*%
%FSLAX46Y46*%
G04 Gerber Fmt 4.6, Leading zero omitted, Abs format (unit mm)*
G04 Created by KiCad (PCBNEW 6.0.10-86aedd382b~118~ubuntu22.04.1) date 2023-01-20 17:58:32*
%MOMM*%
%LPD*%
G01*
G04 APERTURE LIST*
%TA.AperFunction,ComponentPad*%
%ADD10C,1.400000*%
%TD*%
%TA.AperFunction,ComponentPad*%
%ADD11O,1.400000X1.400000*%
%TD*%
%TA.AperFunction,ComponentPad*%
%ADD12R,1.700000X1.700000*%
%TD*%
%TA.AperFunction,ComponentPad*%
%ADD13O,1.700000X1.700000*%
%TD*%
%TA.AperFunction,ComponentPad*%
%ADD14R,2.000000X2.000000*%
%TD*%
%TA.AperFunction,ComponentPad*%
%ADD15C,2.000000*%
%TD*%
%TA.AperFunction,ComponentPad*%
%ADD16C,2.100000*%
%TD*%
%TA.AperFunction,ComponentPad*%
%ADD17C,1.750000*%
%TD*%
%TA.AperFunction,ComponentPad*%
%ADD18R,2.800000X2.800000*%
%TD*%
%TA.AperFunction,ComponentPad*%
%ADD19O,2.800000X2.800000*%
%TD*%
%TA.AperFunction,ViaPad*%
%ADD20C,0.800000*%
%TD*%
%TA.AperFunction,Conductor*%
%ADD21C,0.400000*%
%TD*%
%TA.AperFunction,Conductor*%
%ADD22C,0.700000*%
%TD*%
G04 APERTURE END LIST*
D10*
%TO.P,R13,1*%
%TO.N,+3V3*%
X48500000Y-18836800D03*
D11*
%TO.P,R13,2*%
%TO.N,SCL*%
X48500000Y-26456800D03*
%TD*%
D12*
%TO.P,J3,1,Pin_1*%
%TO.N,unconnected-(J3-Pad1)*%
X51917200Y-85852000D03*
D13*
%TO.P,J3,2,Pin_2*%
%TO.N,Net-(J3-Pad2)*%
X51917200Y-88392000D03*
%TO.P,J3,3,Pin_3*%
%TO.N,WRITE_EN*%
X51917200Y-90932000D03*
%TD*%
D14*
%TO.P,BT2,1,+*%
%TO.N,VBAT_AAA*%
X50901600Y-72491600D03*
D15*
%TO.P,BT2,2,-*%
%TO.N,GND*%
X50901600Y-59791600D03*
%TD*%
D16*
%TO.P,SW2,*%
%TO.N,*%
X5916500Y-19375000D03*
X5916500Y-26385000D03*
D17*
%TO.P,SW2,1,1*%
%TO.N,BUT_B*%
X3426500Y-25135000D03*
%TO.P,SW2,2,2*%
%TO.N,GND*%
X3426500Y-20635000D03*
%TD*%
D12*
%TO.P,U3,1,GND*%
%TO.N,GND*%
X23190000Y-26924000D03*
D13*
%TO.P,U3,2,3V3*%
%TO.N,+3V3*%
X25730000Y-26924000D03*
%TO.P,U3,3,SCL*%
%TO.N,SCL*%
X28270000Y-26924000D03*
%TO.P,U3,4,SDA*%
%TO.N,SDA*%
X30810000Y-26924000D03*
%TD*%
D10*
%TO.P,R11,1*%
%TO.N,+3V3*%
X9271000Y-19050000D03*
D11*
%TO.P,R11,2*%
%TO.N,BUT_B*%
X9271000Y-26670000D03*
%TD*%
D10*
%TO.P,R10,1*%
%TO.N,+3V3*%
X9296400Y-16408400D03*
D11*
%TO.P,R10,2*%
%TO.N,BUT_A*%
X9296400Y-8788400D03*
%TD*%
D12*
%TO.P,J1,1,Pin_1*%
%TO.N,VSYS*%
X51700600Y-13664200D03*
D13*
%TO.P,J1,2,Pin_2*%
%TO.N,Net-(D1-Pad1)*%
X51700600Y-16204200D03*
%TO.P,J1,3,Pin_3*%
%TO.N,unconnected-(J1-Pad3)*%
X51700600Y-18744200D03*
%TD*%
D16*
%TO.P,SW1,*%
%TO.N,*%
X5944400Y-9124400D03*
X5944400Y-16134400D03*
D17*
%TO.P,SW1,1,1*%
%TO.N,BUT_A*%
X3454400Y-14884400D03*
%TO.P,SW1,2,2*%
%TO.N,GND*%
X3454400Y-10384400D03*
%TD*%
D10*
%TO.P,R12,1*%
%TO.N,+3V3*%
X48500000Y-16500000D03*
D11*
%TO.P,R12,2*%
%TO.N,SDA*%
X48500000Y-8880000D03*
%TD*%
D12*
%TO.P,U2,1,3v3*%
%TO.N,+3V3*%
X12623800Y-1930400D03*
D13*
%TO.P,U2,2,GND*%
%TO.N,SCD30_GND*%
X15163800Y-1930400D03*
%TO.P,U2,3,SCL*%
%TO.N,SCL*%
X17703800Y-1930400D03*
%TO.P,U2,4,SDA*%
%TO.N,SDA*%
X20243800Y-1930400D03*
%TO.P,U2,5,RDY*%
%TO.N,unconnected-(U2-Pad5)*%
X22783800Y-1930400D03*
%TO.P,U2,6,PWM*%
%TO.N,unconnected-(U2-Pad6)*%
X25323800Y-1930400D03*
%TO.P,U2,7,SEL*%
%TO.N,unconnected-(U2-Pad7)*%
X27863800Y-1930400D03*
%TD*%
D18*
%TO.P,D2,1,K*%
%TO.N,Net-(D1-Pad1)*%
X45330000Y-26720800D03*
D19*
%TO.P,D2,2,A*%
%TO.N,VBAT_AAA*%
X35170000Y-26720800D03*
%TD*%
D20*
%TO.N,BUZZER*%
X41656000Y-78994000D03*
X28448000Y-33782000D03*
X41656000Y-73914000D03*
X28156500Y-73660000D03*
%TO.N,SD_CS*%
X44196000Y-33782000D03*
X44196000Y-56134000D03*
X34798000Y-56134000D03*
X34798000Y-100584000D03*
%TO.N,MOSI*%
X33274000Y-40386000D03*
X16510000Y-39878000D03*
X16510000Y-33528000D03*
X33528000Y-97723500D03*
%TO.N,+3V3*%
X45327225Y-93264258D03*
X25908000Y-24638000D03*
X32512000Y-96774000D03*
X45278500Y-90932000D03*
X19812000Y-87630000D03*
X9144000Y-24384000D03*
X45466000Y-96774000D03*
X19812000Y-24638000D03*
X19558000Y-80010000D03*
X8636000Y-1270000D03*
X32512000Y-87884000D03*
X48500000Y-22366000D03*
%TO.N,GND*%
X1651000Y-10414000D03*
X30226000Y-44196000D03*
X2540000Y-38608000D03*
X30226000Y-94488000D03*
X46482000Y-93218000D03*
X26162000Y-79502000D03*
X16256000Y-77470000D03*
X22352000Y-38862000D03*
X29972000Y-80264000D03*
X3556000Y-7112000D03*
X26263600Y-59791600D03*
X46228000Y-80264000D03*
X26416000Y-44196000D03*
X30226000Y-97790000D03*
X30226000Y-38862000D03*
X26162000Y-77470000D03*
X12827000Y-86614000D03*
X16256000Y-79248000D03*
X4064000Y-84582000D03*
X46228000Y-88138000D03*
X12446000Y-81280000D03*
%TO.N,SCK*%
X18288000Y-75946000D03*
X31242000Y-76454000D03*
X18288000Y-33782000D03*
X31496000Y-97282000D03*
%TO.N,MISO*%
X13462000Y-60706000D03*
X28956000Y-60960000D03*
X13462000Y-33782000D03*
X28956000Y-97536000D03*
%TO.N,Net-(J3-Pad2)*%
X52832000Y-82550000D03*
%TO.N,WRITE_EN*%
X50292000Y-90932000D03*
X31750000Y-74930000D03*
X31242000Y-33782000D03*
X50038000Y-74930000D03*
%TO.N,SCD30_EN*%
X48768000Y-92964000D03*
X47244000Y-99314000D03*
X35052000Y-47752000D03*
X42672000Y-99568000D03*
X38354000Y-95758000D03*
X44958000Y-99568000D03*
X35306000Y-33782000D03*
X48768000Y-90170000D03*
X38862000Y-100212502D03*
X47498000Y-48260000D03*
%TO.N,SCD30_GND*%
X11176000Y-3810000D03*
X47498000Y-91440000D03*
X46736000Y-55372000D03*
X11938000Y-54864000D03*
%TO.N,BUT_A*%
X7366000Y-24892000D03*
X41148000Y-28702000D03*
X9245600Y-14122400D03*
X7620000Y-18034000D03*
X3810000Y-17780000D03*
X7620000Y-20574000D03*
X27178000Y-25654000D03*
%TO.N,BUT_B*%
X4572000Y-46228000D03*
X24638000Y-97790000D03*
X3810000Y-28194000D03*
X24638000Y-69596000D03*
X38608000Y-33782000D03*
X38608000Y-68580000D03*
X38608000Y-45720000D03*
%TO.N,Net-(BT1-Pad1)*%
X26415200Y-94234800D03*
X25908000Y-81534000D03*
%TO.N,VSYS*%
X46990000Y-21082000D03*
X45720000Y-46736000D03*
X51562000Y-22098000D03*
X46736000Y-14732000D03*
%TO.N,SDA*%
X47498000Y-4064000D03*
X43434000Y-77724000D03*
X33274000Y-37084000D03*
X51562000Y-33782000D03*
X21590000Y-3302000D03*
X45466000Y-62992000D03*
X41402000Y-43688000D03*
X51308000Y-35306000D03*
X42672000Y-25654000D03*
X42418000Y-60960000D03*
X42926000Y-92057300D03*
X30226000Y-37084000D03*
X32258000Y-42418000D03*
%TO.N,SCL*%
X23876000Y-28702000D03*
X23838500Y-92202000D03*
X48768000Y-28448000D03*
X23838500Y-81026000D03*
X23838500Y-33744500D03*
X13462000Y-28702000D03*
%TO.N,RTC_INT*%
X26162000Y-33782000D03*
X21082000Y-82296000D03*
X21336000Y-42926000D03*
X26162000Y-42926000D03*
%TO.N,VBAT_AAA*%
X39624000Y-98044000D03*
X36830000Y-72593200D03*
X36322000Y-35814000D03*
X34036000Y-35597500D03*
X39522400Y-72491600D03*
%TO.N,VBAT_LIPO*%
X14224000Y-101346000D03*
X11176000Y-87376000D03*
X11176000Y-91694000D03*
X13462000Y-91694000D03*
X7620000Y-87376000D03*
%TO.N,Net-(C1-Pad1)*%
X21844000Y-84836000D03*
X22314500Y-89154000D03*
%TO.N,VBUS*%
X15240000Y-96520000D03*
X15240000Y-57658000D03*
X51562000Y-53340000D03*
X51562000Y-57658000D03*
X14732000Y-82042000D03*
%TO.N,Net-(R7-Pad2)*%
X2286000Y-78994000D03*
X2540000Y-89916000D03*
%TO.N,Net-(R8-Pad1)*%
X13462000Y-79502000D03*
X13716000Y-83566000D03*
%TO.N,Net-(D1-Pad1)*%
X50165000Y-16129000D03*
X39624000Y-28702000D03*
X50165000Y-24130000D03*
X42418000Y-98044000D03*
%TD*%
D21*
%TO.N,BUZZER*%
X28156500Y-60489500D02*
X28448000Y-60198000D01*
X28156500Y-73660000D02*
X28156500Y-60489500D01*
X28448000Y-60198000D02*
X28448000Y-33782000D01*
X41656000Y-78994000D02*
X41656000Y-73914000D01*
%TO.N,SD_CS*%
X34798000Y-100584000D02*
X34798000Y-91440000D01*
X34798000Y-91440000D02*
X34798000Y-56134000D01*
X44196000Y-56134000D02*
X44196000Y-33782000D01*
%TO.N,MOSI*%
X33528000Y-92710000D02*
X33528000Y-40640000D01*
X33528000Y-40640000D02*
X33274000Y-40386000D01*
X16510000Y-39878000D02*
X16510000Y-33528000D01*
X33528000Y-97723500D02*
X33528000Y-92710000D01*
D22*
%TO.N,+3V3*%
X7874000Y-7620000D02*
X7874000Y-14986000D01*
X48500000Y-18836800D02*
X48500000Y-22366000D01*
X48500000Y-18836800D02*
X48500000Y-16500000D01*
X9296400Y-19024600D02*
X9271000Y-19050000D01*
X19812000Y-87630000D02*
X19812000Y-80264000D01*
X19558000Y-24638000D02*
X19812000Y-24638000D01*
X45327225Y-90980725D02*
X45278500Y-90932000D01*
X45327225Y-93264258D02*
X45327225Y-96635225D01*
X45327225Y-96635225D02*
X45466000Y-96774000D01*
X8636000Y-6858000D02*
X7874000Y-7620000D01*
D21*
X25908000Y-27178000D02*
X25730000Y-27000000D01*
D22*
X25908000Y-24638000D02*
X25908000Y-26746000D01*
X8636000Y-1270000D02*
X8636000Y-6858000D01*
X19812000Y-80264000D02*
X19558000Y-80010000D01*
X7874000Y-14986000D02*
X9296400Y-16408400D01*
X45327225Y-93264258D02*
X45327225Y-90980725D01*
X19558000Y-80010000D02*
X19558000Y-24638000D01*
X9144000Y-19177000D02*
X9271000Y-19050000D01*
X9144000Y-24384000D02*
X9144000Y-19177000D01*
X9296400Y-16408400D02*
X9296400Y-19024600D01*
X32512000Y-96774000D02*
X32512000Y-87884000D01*
X25908000Y-26746000D02*
X25730000Y-26924000D01*
%TO.N,GND*%
X4318000Y-84328000D02*
X4064000Y-84582000D01*
X8763000Y-85725000D02*
X8763000Y-84328000D01*
X16256000Y-79248000D02*
X16256000Y-77470000D01*
X26263600Y-59791600D02*
X26263600Y-44348400D01*
X3556000Y-7112000D02*
X3556000Y-10282800D01*
X8763000Y-84328000D02*
X4318000Y-84328000D01*
X3426500Y-20635000D02*
X2001500Y-22060000D01*
X1651000Y-10414000D02*
X1651000Y-18859500D01*
X30226000Y-44196000D02*
X30226000Y-38862000D01*
X2001500Y-22060000D02*
X2001500Y-37053500D01*
X26162000Y-79502000D02*
X26162000Y-77470000D01*
X22352000Y-38862000D02*
X22352000Y-27762000D01*
X3556000Y-10282800D02*
X3454400Y-10384400D01*
X12700000Y-84328000D02*
X12700000Y-81534000D01*
X12827000Y-86614000D02*
X12573000Y-86360000D01*
X12573000Y-86360000D02*
X9398000Y-86360000D01*
X30226000Y-80518000D02*
X29972000Y-80264000D01*
X26162000Y-77470000D02*
X26162000Y-59893200D01*
X46228000Y-92964000D02*
X46482000Y-93218000D01*
X46228000Y-88138000D02*
X46228000Y-80264000D01*
X12700000Y-81534000D02*
X12446000Y-81280000D01*
X2001500Y-37053500D02*
X2032000Y-37084000D01*
X26263600Y-44348400D02*
X26416000Y-44196000D01*
X2032000Y-38100000D02*
X2540000Y-38608000D01*
X26162000Y-59893200D02*
X26263600Y-59791600D01*
X2032000Y-37084000D02*
X2032000Y-38100000D01*
X12700000Y-84328000D02*
X8763000Y-84328000D01*
X1651000Y-18859500D02*
X3426500Y-20635000D01*
X9398000Y-86360000D02*
X8763000Y-85725000D01*
X22352000Y-27762000D02*
X23190000Y-26924000D01*
D21*
X23190000Y-27000000D02*
X23190000Y-27102000D01*
D22*
X30226000Y-97790000D02*
X30226000Y-80518000D01*
X46228000Y-88138000D02*
X46228000Y-92964000D01*
D21*
%TO.N,SCK*%
X18288000Y-75946000D02*
X18288000Y-33782000D01*
X31496000Y-76708000D02*
X31242000Y-76454000D01*
X31496000Y-97282000D02*
X31496000Y-76708000D01*
%TO.N,MISO*%
X13462000Y-38100000D02*
X13462000Y-60706000D01*
X13462000Y-33782000D02*
X13462000Y-38100000D01*
X28956000Y-60960000D02*
X28956000Y-97536000D01*
%TO.N,Net-(J3-Pad2)*%
X53340000Y-83058000D02*
X52832000Y-82550000D01*
X53340000Y-83312000D02*
X53340000Y-83058000D01*
X53340000Y-86969200D02*
X53340000Y-83312000D01*
X51917200Y-88392000D02*
X53340000Y-86969200D01*
%TO.N,WRITE_EN*%
X31750000Y-74930000D02*
X31242000Y-74422000D01*
X50292000Y-90932000D02*
X50292000Y-75184000D01*
X50292000Y-75184000D02*
X50038000Y-74930000D01*
X31242000Y-74422000D02*
X31242000Y-33782000D01*
%TO.N,SCD30_EN*%
X42672000Y-99568000D02*
X44958000Y-99568000D01*
X47752000Y-77216000D02*
X47752000Y-75946000D01*
X48768000Y-82804000D02*
X48768000Y-78232000D01*
X48651200Y-97906800D02*
X48651200Y-93080800D01*
X38354000Y-95758000D02*
X38354000Y-99704502D01*
X48768000Y-78232000D02*
X48514000Y-77978000D01*
X47244000Y-99314000D02*
X48651200Y-97906800D01*
X38354000Y-99704502D02*
X38862000Y-100212502D01*
X47752000Y-75946000D02*
X47752000Y-48514000D01*
X47752000Y-48514000D02*
X47498000Y-48260000D01*
X48768000Y-90170000D02*
X48768000Y-82804000D01*
X48514000Y-77978000D02*
X47752000Y-77216000D01*
X35052000Y-34036000D02*
X35306000Y-33782000D01*
X48651200Y-93080800D02*
X48768000Y-92964000D01*
X35052000Y-47752000D02*
X35052000Y-34036000D01*
D22*
%TO.N,SCD30_GND*%
X47244000Y-78232000D02*
X47752000Y-78740000D01*
X11176000Y-17526000D02*
X11176000Y-54102000D01*
X15367000Y-2133600D02*
X15163800Y-1930400D01*
X11176000Y-3810000D02*
X11176000Y-4602000D01*
X47752000Y-91186000D02*
X47498000Y-91440000D01*
X47752000Y-83312000D02*
X47752000Y-91186000D01*
X46736000Y-55372000D02*
X46736000Y-77724000D01*
X11176000Y-4602000D02*
X11064000Y-4714000D01*
X11176000Y-54102000D02*
X11938000Y-54864000D01*
X11176000Y-4826000D02*
X11176000Y-17526000D01*
X47752000Y-78740000D02*
X47752000Y-83312000D01*
X46736000Y-77724000D02*
X47244000Y-78232000D01*
X11064000Y-4714000D02*
X11176000Y-4826000D01*
D21*
%TO.N,BUT_A*%
X37084000Y-24638000D02*
X41148000Y-28702000D01*
X7620000Y-24638000D02*
X7620000Y-18034000D01*
X7366000Y-24892000D02*
X7620000Y-24638000D01*
X28194000Y-24638000D02*
X37084000Y-24638000D01*
X9296400Y-8788400D02*
X9296400Y-14122400D01*
X27178000Y-25654000D02*
X28194000Y-24638000D01*
X3810000Y-17780000D02*
X7366000Y-17780000D01*
X7366000Y-17780000D02*
X7620000Y-18034000D01*
%TO.N,BUT_B*%
X3426500Y-25135000D02*
X3426500Y-27810500D01*
X3810000Y-28194000D02*
X3810000Y-45466000D01*
X24638000Y-69596000D02*
X24638000Y-97790000D01*
X38608000Y-41402000D02*
X38608000Y-45720000D01*
X3810000Y-45466000D02*
X4572000Y-46228000D01*
X3426500Y-27810500D02*
X3810000Y-28194000D01*
X38608000Y-33782000D02*
X38608000Y-41402000D01*
X38608000Y-45720000D02*
X38608000Y-68580000D01*
D22*
%TO.N,Net-(BT1-Pad1)*%
X25908000Y-93727600D02*
X26415200Y-94234800D01*
X25908000Y-81534000D02*
X25908000Y-93727600D01*
%TO.N,VSYS*%
X46736000Y-14732000D02*
X46736000Y-20828000D01*
X45466000Y-42418000D02*
X45720000Y-42672000D01*
X45503500Y-36538500D02*
X45466000Y-36538500D01*
X51054000Y-25146000D02*
X51054000Y-30988000D01*
X45466000Y-36538500D02*
X45466000Y-42418000D01*
X51562000Y-22098000D02*
X51562000Y-24638000D01*
X51054000Y-30988000D02*
X45503500Y-36538500D01*
X45720000Y-42672000D02*
X45720000Y-46736000D01*
X51562000Y-24638000D02*
X51054000Y-25146000D01*
X46736000Y-20828000D02*
X46990000Y-21082000D01*
D21*
%TO.N,SDA*%
X29718000Y-36576000D02*
X29718000Y-28016000D01*
X45466000Y-71374000D02*
X45466000Y-62992000D01*
X21336000Y-3048000D02*
X21590000Y-3302000D01*
X32258000Y-38100000D02*
X33274000Y-37084000D01*
X32258000Y-42418000D02*
X32258000Y-38100000D01*
X43180000Y-25400000D02*
X42926000Y-25400000D01*
X29718000Y-28016000D02*
X30810000Y-26924000D01*
X21336000Y-3022600D02*
X20243800Y-1930400D01*
X30226000Y-37084000D02*
X29718000Y-36576000D01*
X21336000Y-3022600D02*
X21336000Y-3048000D01*
X45720000Y-11660000D02*
X45720000Y-23876000D01*
X45466000Y-75692000D02*
X45466000Y-71374000D01*
X43434000Y-91549300D02*
X42926000Y-92057300D01*
X42418000Y-60960000D02*
X42418000Y-44704000D01*
X45720000Y-23876000D02*
X44958000Y-24638000D01*
X42418000Y-44704000D02*
X41402000Y-43688000D01*
X42926000Y-25400000D02*
X42672000Y-25654000D01*
X51562000Y-33782000D02*
X51562000Y-35306000D01*
X48500000Y-5066000D02*
X48500000Y-8880000D01*
X43434000Y-77724000D02*
X43434000Y-91549300D01*
X43942000Y-24638000D02*
X43180000Y-25400000D01*
X44958000Y-24638000D02*
X43942000Y-24638000D01*
X43434000Y-77724000D02*
X45466000Y-75692000D01*
X51562000Y-35306000D02*
X51308000Y-35306000D01*
X48500000Y-8880000D02*
X45720000Y-11660000D01*
X47498000Y-4064000D02*
X48500000Y-5066000D01*
%TO.N,SCL*%
X23838500Y-81026000D02*
X23876000Y-81063500D01*
X23838500Y-81063500D02*
X23114000Y-81788000D01*
X23876000Y-28702000D02*
X23838500Y-28739500D01*
D22*
X28448000Y-26873200D02*
X28600400Y-27025600D01*
D21*
X13716000Y-3302000D02*
X16332200Y-3302000D01*
X48768000Y-28448000D02*
X48768000Y-26724800D01*
X23838500Y-81026000D02*
X23838500Y-81063500D01*
X23838500Y-81026000D02*
X23838500Y-34581500D01*
X23838500Y-92164500D02*
X23114000Y-91440000D01*
X23838500Y-34581500D02*
X23838500Y-33744500D01*
X12446000Y-27686000D02*
X12446000Y-4572000D01*
X23622000Y-81026000D02*
X23838500Y-81026000D01*
X13462000Y-28702000D02*
X12446000Y-27686000D01*
X16332200Y-3302000D02*
X17703800Y-1930400D01*
X23838500Y-92202000D02*
X23838500Y-92164500D01*
D22*
X28321000Y-26949000D02*
X28270000Y-27000000D01*
D21*
X48768000Y-26724800D02*
X48500000Y-26456800D01*
X23114000Y-91440000D02*
X23114000Y-81788000D01*
X23838500Y-28739500D02*
X23838500Y-33744500D01*
X12446000Y-4572000D02*
X13716000Y-3302000D01*
%TO.N,RTC_INT*%
X26162000Y-42926000D02*
X26162000Y-33782000D01*
X21082000Y-82296000D02*
X21082000Y-43180000D01*
X21082000Y-43180000D02*
X21336000Y-42926000D01*
D22*
%TO.N,VBAT_AAA*%
X36271200Y-37642800D02*
X36271200Y-49733200D01*
X36271200Y-72034400D02*
X36830000Y-72593200D01*
X36271200Y-35864800D02*
X36271200Y-37642800D01*
X33578800Y-35102800D02*
X34036000Y-35560000D01*
X34036000Y-35560000D02*
X34036000Y-35597500D01*
X39624000Y-98044000D02*
X39624000Y-72593200D01*
X36271200Y-36576000D02*
X36271200Y-37642800D01*
X36271200Y-49733200D02*
X36271200Y-72034400D01*
X33578800Y-28312000D02*
X35170000Y-26720800D01*
X39624000Y-72593200D02*
X39522400Y-72491600D01*
X36322000Y-35814000D02*
X36271200Y-35864800D01*
X33578800Y-28312000D02*
X33578800Y-35102800D01*
%TO.N,VBAT_LIPO*%
X11176000Y-87376000D02*
X11176000Y-91694000D01*
X7366000Y-87376000D02*
X7620000Y-87376000D01*
X11176000Y-87376000D02*
X7366000Y-87376000D01*
X13462000Y-100584000D02*
X14224000Y-101346000D01*
X13462000Y-91694000D02*
X13462000Y-100584000D01*
D21*
%TO.N,Net-(C1-Pad1)*%
X22314500Y-89154000D02*
X21844000Y-88683500D01*
X21844000Y-88683500D02*
X21844000Y-84836000D01*
D22*
%TO.N,VBUS*%
X15240000Y-96520000D02*
X15240000Y-82550000D01*
X15240000Y-82550000D02*
X14732000Y-82042000D01*
X15240000Y-81534000D02*
X14732000Y-82042000D01*
X15240000Y-57658000D02*
X15240000Y-81534000D01*
X51562000Y-53340000D02*
X51562000Y-57658000D01*
%TO.N,Net-(R7-Pad2)*%
X2286000Y-78994000D02*
X2286000Y-89662000D01*
X2286000Y-89662000D02*
X2540000Y-89916000D01*
%TO.N,Net-(R8-Pad1)*%
X13716000Y-79756000D02*
X13462000Y-79502000D01*
X13716000Y-83566000D02*
X13716000Y-79756000D01*
%TO.N,Net-(D1-Pad1)*%
X50165000Y-24130000D02*
X50165000Y-16129000D01*
X42418000Y-98044000D02*
X40612976Y-96238976D01*
X40132000Y-70866000D02*
X39624000Y-70358000D01*
X39624000Y-70358000D02*
X39624000Y-64008000D01*
X40612976Y-71346976D02*
X40132000Y-70866000D01*
X39624000Y-64008000D02*
X39624000Y-28702000D01*
X40612976Y-96238976D02*
X40612976Y-71346976D01*
%TD*%
M02*
