%TF.GenerationSoftware,KiCad,Pcbnew,6.0.10-86aedd382b~118~ubuntu22.04.1*%
%TF.CreationDate,2023-01-20T17:58:32-05:00*%
%TF.ProjectId,picoco2,7069636f-636f-4322-9e6b-696361645f70,rev?*%
%TF.SameCoordinates,Original*%
%TF.FileFunction,Soldermask,Bot*%
%TF.FilePolarity,Negative*%
%FSLAX46Y46*%
G04 Gerber Fmt 4.6, Leading zero omitted, Abs format (unit mm)*
G04 Created by KiCad (PCBNEW 6.0.10-86aedd382b~118~ubuntu22.04.1) date 2023-01-20 17:58:32*
%MOMM*%
%LPD*%
G01*
G04 APERTURE LIST*
%ADD10C,1.400000*%
%ADD11O,1.400000X1.400000*%
%ADD12R,1.700000X1.700000*%
%ADD13O,1.700000X1.700000*%
%ADD14C,3.200000*%
%ADD15C,3.450000*%
%ADD16R,2.000000X2.000000*%
%ADD17C,2.000000*%
%ADD18C,2.100000*%
%ADD19C,1.750000*%
%ADD20C,1.500000*%
%ADD21O,1.500000X1.500000*%
%ADD22O,1.800000X1.800000*%
%ADD23R,2.800000X2.800000*%
%ADD24O,2.800000X2.800000*%
G04 APERTURE END LIST*
D10*
%TO.C,R13*%
X48500000Y-18836800D03*
D11*
X48500000Y-26456800D03*
%TD*%
D12*
%TO.C,J3*%
X51917200Y-85852000D03*
D13*
X51917200Y-88392000D03*
X51917200Y-90932000D03*
%TD*%
D14*
%TO.C,H3*%
X50500000Y-3400000D03*
%TD*%
D15*
%TO.C,BT2*%
X12291600Y-63791600D03*
D16*
X50901600Y-72491600D03*
D17*
X50901600Y-59791600D03*
%TD*%
D18*
%TO.C,SW2*%
X5916500Y-19375000D03*
X5916500Y-26385000D03*
D19*
X3426500Y-25135000D03*
X3426500Y-20635000D03*
%TD*%
D14*
%TO.C,H1*%
X50500000Y-99400000D03*
%TD*%
D12*
%TO.C,U3*%
X23190000Y-26924000D03*
D13*
X25730000Y-26924000D03*
X28270000Y-26924000D03*
X30810000Y-26924000D03*
%TD*%
D10*
%TO.C,R11*%
X9271000Y-19050000D03*
D11*
X9271000Y-26670000D03*
%TD*%
D10*
%TO.C,R10*%
X9296400Y-16408400D03*
D11*
X9296400Y-8788400D03*
%TD*%
D20*
%TO.C,BT1*%
X11699800Y-94234800D03*
X19149800Y-94234800D03*
%TD*%
D14*
%TO.C,H2*%
X3400000Y-3400000D03*
%TD*%
D21*
%TO.C,U1*%
X48300400Y-43420600D03*
D22*
X51330400Y-38270600D03*
X51330400Y-43720600D03*
D21*
X48300400Y-38570600D03*
%TD*%
D12*
%TO.C,J1*%
X51700600Y-13664200D03*
D13*
X51700600Y-16204200D03*
X51700600Y-18744200D03*
%TD*%
D18*
%TO.C,SW1*%
X5944400Y-9124400D03*
X5944400Y-16134400D03*
D19*
X3454400Y-14884400D03*
X3454400Y-10384400D03*
%TD*%
D10*
%TO.C,R12*%
X48500000Y-16500000D03*
D11*
X48500000Y-8880000D03*
%TD*%
D14*
%TO.C,H4*%
X3400000Y-99400000D03*
%TD*%
D12*
%TO.C,U2*%
X12623800Y-1930400D03*
D13*
X15163800Y-1930400D03*
X17703800Y-1930400D03*
X20243800Y-1930400D03*
X22783800Y-1930400D03*
X25323800Y-1930400D03*
X27863800Y-1930400D03*
%TD*%
D23*
%TO.C,D2*%
X45330000Y-26720800D03*
D24*
X35170000Y-26720800D03*
%TD*%
M02*
