%TF.GenerationSoftware,KiCad,Pcbnew,6.0.10-86aedd382b~118~ubuntu22.04.1*%
%TF.CreationDate,2023-01-20T17:58:32-05:00*%
%TF.ProjectId,picoco2,7069636f-636f-4322-9e6b-696361645f70,rev?*%
%TF.SameCoordinates,Original*%
%TF.FileFunction,Paste,Top*%
%TF.FilePolarity,Positive*%
%FSLAX46Y46*%
G04 Gerber Fmt 4.6, Leading zero omitted, Abs format (unit mm)*
G04 Created by KiCad (PCBNEW 6.0.10-86aedd382b~118~ubuntu22.04.1) date 2023-01-20 17:58:32*
%MOMM*%
%LPD*%
G01*
G04 APERTURE LIST*
G04 Aperture macros list*
%AMRoundRect*
0 Rectangle with rounded corners*
0 $1 Rounding radius*
0 $2 $3 $4 $5 $6 $7 $8 $9 X,Y pos of 4 corners*
0 Add a 4 corners polygon primitive as box body*
4,1,4,$2,$3,$4,$5,$6,$7,$8,$9,$2,$3,0*
0 Add four circle primitives for the rounded corners*
1,1,$1+$1,$2,$3*
1,1,$1+$1,$4,$5*
1,1,$1+$1,$6,$7*
1,1,$1+$1,$8,$9*
0 Add four rect primitives between the rounded corners*
20,1,$1+$1,$2,$3,$4,$5,0*
20,1,$1+$1,$4,$5,$6,$7,0*
20,1,$1+$1,$6,$7,$8,$9,0*
20,1,$1+$1,$8,$9,$2,$3,0*%
G04 Aperture macros list end*
%ADD10R,0.700000X1.750000*%
%ADD11R,1.300000X1.500000*%
%ADD12R,0.800000X1.500000*%
%ADD13R,0.800000X1.400000*%
%ADD14R,1.500000X1.500000*%
%ADD15R,1.000000X1.550000*%
%ADD16R,1.450000X1.000000*%
%ADD17RoundRect,0.150000X0.825000X0.150000X-0.825000X0.150000X-0.825000X-0.150000X0.825000X-0.150000X0*%
%ADD18RoundRect,0.237500X0.300000X0.237500X-0.300000X0.237500X-0.300000X-0.237500X0.300000X-0.237500X0*%
%ADD19RoundRect,0.237500X-0.250000X-0.237500X0.250000X-0.237500X0.250000X0.237500X-0.250000X0.237500X0*%
%ADD20RoundRect,0.150000X-0.150000X0.587500X-0.150000X-0.587500X0.150000X-0.587500X0.150000X0.587500X0*%
%ADD21RoundRect,0.237500X0.237500X-0.250000X0.237500X0.250000X-0.237500X0.250000X-0.237500X-0.250000X0*%
%ADD22RoundRect,0.150000X-0.512500X-0.150000X0.512500X-0.150000X0.512500X0.150000X-0.512500X0.150000X0*%
%ADD23R,1.100000X1.100000*%
%ADD24RoundRect,0.250000X0.250000X1.500000X-0.250000X1.500000X-0.250000X-1.500000X0.250000X-1.500000X0*%
%ADD25RoundRect,0.250001X0.499999X1.449999X-0.499999X1.449999X-0.499999X-1.449999X0.499999X-1.449999X0*%
%ADD26R,4.000000X2.000000*%
%ADD27RoundRect,0.237500X0.250000X0.237500X-0.250000X0.237500X-0.250000X-0.237500X0.250000X-0.237500X0*%
%ADD28RoundRect,0.237500X-0.300000X-0.237500X0.300000X-0.237500X0.300000X0.237500X-0.300000X0.237500X0*%
%ADD29RoundRect,0.237500X-0.237500X0.287500X-0.237500X-0.287500X0.237500X-0.287500X0.237500X0.287500X0*%
%ADD30R,2.195000X2.195000*%
%ADD31R,1.300000X1.900000*%
G04 APERTURE END LIST*
D10*
%TO.C,J2*%
X35813600Y-98988000D03*
X34713600Y-98988000D03*
X33613600Y-98988000D03*
X32513600Y-98988000D03*
X31413600Y-98988000D03*
X30313600Y-98988000D03*
X29213600Y-98988000D03*
X28113600Y-98988000D03*
D11*
X26913600Y-98863000D03*
D12*
X26663600Y-91263000D03*
D13*
X38613600Y-90613000D03*
D14*
X38263600Y-98863000D03*
D15*
X38213600Y-88188000D03*
D16*
X26988600Y-89763000D03*
%TD*%
D17*
%TO.C,U4*%
X27468600Y-83997800D03*
X27468600Y-82727800D03*
X27468600Y-81457800D03*
X27468600Y-80187800D03*
X22518600Y-80187800D03*
X22518600Y-81457800D03*
X22518600Y-82727800D03*
X22518600Y-83997800D03*
%TD*%
D18*
%TO.C,C2*%
X18032900Y-80213200D03*
X16307900Y-80213200D03*
%TD*%
%TO.C,C1*%
X18032900Y-82092800D03*
X16307900Y-82092800D03*
%TD*%
D19*
%TO.C,R3*%
X40946700Y-95453200D03*
X42771700Y-95453200D03*
%TD*%
%TO.C,R8*%
X16257900Y-83972400D03*
X18082900Y-83972400D03*
%TD*%
D20*
%TO.C,Q1*%
X48651200Y-91518500D03*
X46751200Y-91518500D03*
X47701200Y-93393500D03*
%TD*%
D21*
%TO.C,R9*%
X24638000Y-100480500D03*
X24638000Y-98655500D03*
%TD*%
%TO.C,R6*%
X24079200Y-89660100D03*
X24079200Y-87835100D03*
%TD*%
D22*
%TO.C,U5*%
X11257700Y-80279200D03*
X11257700Y-81229200D03*
X11257700Y-82179200D03*
X13532700Y-82179200D03*
X13532700Y-80279200D03*
%TD*%
D23*
%TO.C,D1*%
X43767200Y-98044000D03*
X40967200Y-98044000D03*
%TD*%
D19*
%TO.C,R7*%
X1373500Y-90932000D03*
X3198500Y-90932000D03*
%TD*%
D24*
%TO.C,BT3*%
X5978400Y-87381200D03*
X3978400Y-87381200D03*
D25*
X1628400Y-81631200D03*
X8328400Y-81631200D03*
%TD*%
D26*
%TO.C,BT1*%
X23489800Y-94234800D03*
X7599800Y-94234800D03*
%TD*%
D27*
%TO.C,R4*%
X52880900Y-80264000D03*
X51055900Y-80264000D03*
%TD*%
%TO.C,R1*%
X42771700Y-90982800D03*
X40946700Y-90982800D03*
%TD*%
D28*
%TO.C,C3*%
X11177100Y-85293200D03*
X12902100Y-85293200D03*
%TD*%
D27*
%TO.C,R2*%
X42771700Y-93218000D03*
X40946700Y-93218000D03*
%TD*%
D29*
%TO.C,D4*%
X1270000Y-93105000D03*
X1270000Y-94855000D03*
%TD*%
D30*
%TO.C,BZ1*%
X41004000Y-80831200D03*
X41004000Y-88231200D03*
X48404000Y-88231200D03*
%TD*%
D31*
%TO.C,Y1*%
X36735200Y-81000800D03*
X31235200Y-81000800D03*
X31235200Y-84200800D03*
X36735200Y-84200800D03*
%TD*%
D23*
%TO.C,D5*%
X43767200Y-100838000D03*
X40967200Y-100838000D03*
%TD*%
M02*
